<mxfile host="Electron" modified="2023-06-01T11:59:16.579Z" agent="Mozilla/5.0 (X11; Linux x86_64) AppleWebKit/537.36 (KHTML, like Gecko) draw.io/21.2.8 Chrome/112.0.5615.165 Electron/24.2.0 Safari/537.36" etag="HvnojxdxGOlHWKEXD9XB" version="21.2.8" type="device">
  <diagram name="Pagina-1" id="O3CTZWMMPyOAWQnmKs5m">
    <mxGraphModel dx="13827" dy="8020" grid="1" gridSize="10" guides="1" tooltips="1" connect="1" arrows="1" fold="1" page="1" pageScale="1" pageWidth="4681" pageHeight="3300" math="0" shadow="0">
      <root>
        <mxCell id="0" />
        <mxCell id="1" parent="0" />
        <mxCell id="be4pLjDY5olebBffmnFW-15" value="" style="shape=cube;whiteSpace=wrap;html=1;boundedLbl=1;backgroundOutline=1;darkOpacity=0.05;darkOpacity2=0.1;size=320;fillColor=#b1ddf0;strokeColor=#10739e;" parent="1" vertex="1">
          <mxGeometry x="2560" y="2160" width="480" height="800" as="geometry" />
        </mxCell>
        <mxCell id="UhZcS7pYF88xfkLD6wTl-29" value="" style="shape=flexArrow;endArrow=classic;html=1;rounded=0;fillColor=#1ba1e2;strokeColor=none;width=86;endSize=43.800000000000004;endWidth=65.71428571428572;" parent="1" edge="1">
          <mxGeometry width="50" height="50" relative="1" as="geometry">
            <mxPoint x="2450" y="2559.29" as="sourcePoint" />
            <mxPoint x="2710" y="2560" as="targetPoint" />
          </mxGeometry>
        </mxCell>
        <mxCell id="be4pLjDY5olebBffmnFW-14" value="" style="shape=cube;whiteSpace=wrap;html=1;boundedLbl=1;backgroundOutline=1;darkOpacity=0.05;darkOpacity2=0.1;size=320;fillColor=#b1ddf0;strokeColor=#10739e;" parent="1" vertex="1">
          <mxGeometry x="2041" y="2160" width="400" height="800" as="geometry" />
        </mxCell>
        <mxCell id="be4pLjDY5olebBffmnFW-7" value="" style="shape=cube;whiteSpace=wrap;html=1;boundedLbl=1;backgroundOutline=1;darkOpacity=0.05;darkOpacity2=0.1;size=640;fillColor=#b1ddf0;strokeColor=#10739e;" parent="1" vertex="1">
          <mxGeometry x="80" y="80" width="670" height="1600" as="geometry" />
        </mxCell>
        <mxCell id="gqLCmWlHdz-eDP7_4Nn3-55" value="" style="shape=cube;whiteSpace=wrap;html=1;boundedLbl=1;backgroundOutline=1;darkOpacity=0.05;darkOpacity2=0.1;size=160;fillColor=#b1ddf0;strokeColor=#10739e;" parent="1" vertex="1">
          <mxGeometry x="3320" y="3440" width="320" height="400" as="geometry" />
        </mxCell>
        <mxCell id="gqLCmWlHdz-eDP7_4Nn3-58" value="" style="shape=flexArrow;endArrow=classic;html=1;rounded=0;fillColor=#1ba1e2;strokeColor=none;width=21.538461538461537;endSize=19.092307692307692;endWidth=43.2139577594123;" parent="1" edge="1">
          <mxGeometry width="50" height="50" relative="1" as="geometry">
            <mxPoint x="4598.23" y="3540" as="sourcePoint" />
            <mxPoint x="4598" y="3640" as="targetPoint" />
          </mxGeometry>
        </mxCell>
        <mxCell id="gqLCmWlHdz-eDP7_4Nn3-63" value="" style="shape=cube;whiteSpace=wrap;html=1;boundedLbl=1;backgroundOutline=1;darkOpacity=0.05;darkOpacity2=0.1;size=80;fillColor=#b1ddf0;strokeColor=#10739e;" parent="1" vertex="1">
          <mxGeometry x="4440" y="4320" width="400" height="200" as="geometry" />
        </mxCell>
        <mxCell id="be4pLjDY5olebBffmnFW-4" value="" style="shape=cube;whiteSpace=wrap;html=1;boundedLbl=1;backgroundOutline=1;darkOpacity=0.05;darkOpacity2=0.1;size=40;fillColor=#b1ddf0;strokeColor=#10739e;" parent="1" vertex="1">
          <mxGeometry x="5840" y="5000" width="690" height="100" as="geometry" />
        </mxCell>
        <mxCell id="be4pLjDY5olebBffmnFW-11" value="" style="shape=cube;whiteSpace=wrap;html=1;boundedLbl=1;backgroundOutline=1;darkOpacity=0.05;darkOpacity2=0.1;size=640;fillColor=#b1ddf0;strokeColor=#10739e;" parent="1" vertex="1">
          <mxGeometry x="880" y="80" width="720" height="1600" as="geometry" />
        </mxCell>
        <mxCell id="be4pLjDY5olebBffmnFW-13" value="" style="shape=cube;whiteSpace=wrap;html=1;boundedLbl=1;backgroundOutline=1;darkOpacity=0.05;darkOpacity2=0.1;size=640;fillColor=#b1ddf0;strokeColor=#10739e;" parent="1" vertex="1">
          <mxGeometry x="1720" y="80" width="720" height="1600" as="geometry" />
        </mxCell>
        <mxCell id="be4pLjDY5olebBffmnFW-16" value="" style="shape=cube;whiteSpace=wrap;html=1;boundedLbl=1;backgroundOutline=1;darkOpacity=0.05;darkOpacity2=0.1;size=320;fillColor=#b1ddf0;strokeColor=#10739e;" parent="1" vertex="1">
          <mxGeometry x="3160" y="2160" width="480" height="800" as="geometry" />
        </mxCell>
        <mxCell id="be4pLjDY5olebBffmnFW-17" value="" style="shape=cube;whiteSpace=wrap;html=1;boundedLbl=1;backgroundOutline=1;darkOpacity=0.05;darkOpacity2=0.1;size=160;fillColor=#b1ddf0;strokeColor=#10739e;" parent="1" vertex="1">
          <mxGeometry x="3760" y="3440" width="480" height="400" as="geometry" />
        </mxCell>
        <mxCell id="be4pLjDY5olebBffmnFW-18" value="" style="shape=cube;whiteSpace=wrap;html=1;boundedLbl=1;backgroundOutline=1;darkOpacity=0.05;darkOpacity2=0.1;size=160;fillColor=#b1ddf0;strokeColor=#10739e;" parent="1" vertex="1">
          <mxGeometry x="4360" y="3440" width="480" height="400" as="geometry" />
        </mxCell>
        <mxCell id="be4pLjDY5olebBffmnFW-19" value="" style="shape=cube;whiteSpace=wrap;html=1;boundedLbl=1;backgroundOutline=1;darkOpacity=0.05;darkOpacity2=0.1;size=80;fillColor=#b1ddf0;strokeColor=#10739e;" parent="1" vertex="1">
          <mxGeometry x="4950" y="4320" width="736" height="200" as="geometry" />
        </mxCell>
        <mxCell id="be4pLjDY5olebBffmnFW-20" value="" style="shape=cube;whiteSpace=wrap;html=1;boundedLbl=1;backgroundOutline=1;darkOpacity=0.05;darkOpacity2=0.1;size=80;fillColor=#b1ddf0;strokeColor=#10739e;" parent="1" vertex="1">
          <mxGeometry x="5800" y="4320" width="736" height="200" as="geometry" />
        </mxCell>
        <mxCell id="be4pLjDY5olebBffmnFW-21" value="" style="shape=cube;whiteSpace=wrap;html=1;boundedLbl=1;backgroundOutline=1;darkOpacity=0.05;darkOpacity2=0.1;size=40;fillColor=#b1ddf0;strokeColor=#10739e;" parent="1" vertex="1">
          <mxGeometry x="6640" y="5000" width="1340" height="100" as="geometry" />
        </mxCell>
        <mxCell id="be4pLjDY5olebBffmnFW-22" value="" style="shape=cube;whiteSpace=wrap;html=1;boundedLbl=1;backgroundOutline=1;darkOpacity=0.05;darkOpacity2=0.1;size=40;fillColor=#b1ddf0;strokeColor=#10739e;" parent="1" vertex="1">
          <mxGeometry x="8100" y="5000" width="1340" height="100" as="geometry" />
        </mxCell>
        <mxCell id="be4pLjDY5olebBffmnFW-23" value="" style="shape=flexArrow;endArrow=classic;html=1;rounded=0;fillColor=#1ba1e2;strokeColor=none;width=86;endSize=43.800000000000004;endWidth=65.71428571428572;" parent="1" edge="1">
          <mxGeometry width="50" height="50" relative="1" as="geometry">
            <mxPoint x="770" y="879" as="sourcePoint" />
            <mxPoint x="1170" y="879" as="targetPoint" />
          </mxGeometry>
        </mxCell>
        <mxCell id="be4pLjDY5olebBffmnFW-24" value="" style="shape=flexArrow;endArrow=classic;html=1;rounded=0;fillColor=#1ba1e2;strokeColor=none;width=86;endSize=43.800000000000004;endWidth=65.71428571428572;" parent="1" edge="1">
          <mxGeometry width="50" height="50" relative="1" as="geometry">
            <mxPoint x="1620.0000000000005" y="878.57" as="sourcePoint" />
            <mxPoint x="2020" y="878.57" as="targetPoint" />
          </mxGeometry>
        </mxCell>
        <mxCell id="be4pLjDY5olebBffmnFW-25" value="" style="shape=flexArrow;endArrow=classic;html=1;rounded=0;fillColor=#1ba1e2;strokeColor=none;width=168;endSize=61.08;endWidth=128;" parent="1" edge="1">
          <mxGeometry width="50" height="50" relative="1" as="geometry">
            <mxPoint x="2261.33" y="1760" as="sourcePoint" />
            <mxPoint x="2260" y="2080" as="targetPoint" />
          </mxGeometry>
        </mxCell>
        <mxCell id="be4pLjDY5olebBffmnFW-26" value="" style="shape=flexArrow;endArrow=classic;html=1;rounded=0;fillColor=#1ba1e2;strokeColor=none;width=168;endSize=61.08;endWidth=128;" parent="1" edge="1">
          <mxGeometry width="50" height="50" relative="1" as="geometry">
            <mxPoint x="3431.33" y="3040" as="sourcePoint" />
            <mxPoint x="3430" y="3360" as="targetPoint" />
          </mxGeometry>
        </mxCell>
        <mxCell id="be4pLjDY5olebBffmnFW-27" value="" style="shape=flexArrow;endArrow=classic;html=1;rounded=0;fillColor=#1ba1e2;strokeColor=none;width=168;endSize=61.08;endWidth=128;" parent="1" edge="1">
          <mxGeometry width="50" height="50" relative="1" as="geometry">
            <mxPoint x="4631.33" y="3920" as="sourcePoint" />
            <mxPoint x="4630" y="4240" as="targetPoint" />
          </mxGeometry>
        </mxCell>
        <mxCell id="be4pLjDY5olebBffmnFW-28" value="" style="shape=flexArrow;endArrow=classic;html=1;rounded=0;fillColor=#1ba1e2;strokeColor=none;width=168;endSize=61.08;endWidth=128;" parent="1" edge="1">
          <mxGeometry width="50" height="50" relative="1" as="geometry">
            <mxPoint x="6161.33" y="4610" as="sourcePoint" />
            <mxPoint x="6160" y="4930" as="targetPoint" />
          </mxGeometry>
        </mxCell>
        <mxCell id="UhZcS7pYF88xfkLD6wTl-8" value="" style="shape=cube;whiteSpace=wrap;html=1;boundedLbl=1;backgroundOutline=1;darkOpacity=0.05;darkOpacity2=0.1;size=80;fillColor=#b1ddf0;strokeColor=#10739e;" parent="1" vertex="1">
          <mxGeometry x="8694" y="4320" width="736" height="200" as="geometry" />
        </mxCell>
        <mxCell id="UhZcS7pYF88xfkLD6wTl-7" value="" style="shape=cube;whiteSpace=wrap;html=1;boundedLbl=1;backgroundOutline=1;darkOpacity=0.05;darkOpacity2=0.1;size=80;fillColor=#bac8d3;strokeColor=#23445d;" parent="1" vertex="1">
          <mxGeometry x="8050" y="4320" width="736" height="200" as="geometry" />
        </mxCell>
        <mxCell id="UhZcS7pYF88xfkLD6wTl-9" value="" style="shape=cube;whiteSpace=wrap;html=1;boundedLbl=1;backgroundOutline=1;darkOpacity=0.05;darkOpacity2=0.1;size=80;fillColor=#b1ddf0;strokeColor=#10739e;" parent="1" vertex="1">
          <mxGeometry x="9560" y="4320" width="736" height="200" as="geometry" />
        </mxCell>
        <mxCell id="UhZcS7pYF88xfkLD6wTl-10" value="" style="shape=cube;whiteSpace=wrap;html=1;boundedLbl=1;backgroundOutline=1;darkOpacity=0.05;darkOpacity2=0.1;size=80;fillColor=#b1ddf0;strokeColor=#10739e;" parent="1" vertex="1">
          <mxGeometry x="10430" y="4320" width="736" height="200" as="geometry" />
        </mxCell>
        <mxCell id="UhZcS7pYF88xfkLD6wTl-12" value="" style="shape=cube;whiteSpace=wrap;html=1;boundedLbl=1;backgroundOutline=1;darkOpacity=0.05;darkOpacity2=0.1;size=160;fillColor=#b1ddf0;strokeColor=#10739e;" parent="1" vertex="1">
          <mxGeometry x="10680" y="3440" width="486" height="400" as="geometry" />
        </mxCell>
        <mxCell id="UhZcS7pYF88xfkLD6wTl-11" value="" style="shape=cube;whiteSpace=wrap;html=1;boundedLbl=1;backgroundOutline=1;darkOpacity=0.05;darkOpacity2=0.1;size=160;fillColor=#bac8d3;strokeColor=#23445d;" parent="1" vertex="1">
          <mxGeometry x="10350" y="3440" width="490" height="400" as="geometry" />
        </mxCell>
        <mxCell id="UhZcS7pYF88xfkLD6wTl-13" value="" style="shape=cube;whiteSpace=wrap;html=1;boundedLbl=1;backgroundOutline=1;darkOpacity=0.05;darkOpacity2=0.1;size=160;fillColor=#b1ddf0;strokeColor=#10739e;" parent="1" vertex="1">
          <mxGeometry x="11290" y="3440" width="486" height="400" as="geometry" />
        </mxCell>
        <mxCell id="UhZcS7pYF88xfkLD6wTl-14" value="" style="shape=cube;whiteSpace=wrap;html=1;boundedLbl=1;backgroundOutline=1;darkOpacity=0.05;darkOpacity2=0.1;size=160;fillColor=#b1ddf0;strokeColor=#10739e;" parent="1" vertex="1">
          <mxGeometry x="11900" y="3440" width="486" height="400" as="geometry" />
        </mxCell>
        <mxCell id="UhZcS7pYF88xfkLD6wTl-16" value="" style="shape=cube;whiteSpace=wrap;html=1;boundedLbl=1;backgroundOutline=1;darkOpacity=0.05;darkOpacity2=0.1;size=320;fillColor=#b1ddf0;strokeColor=#10739e;" parent="1" vertex="1">
          <mxGeometry x="11906" y="2160" width="480" height="800" as="geometry" />
        </mxCell>
        <mxCell id="UhZcS7pYF88xfkLD6wTl-15" value="" style="shape=cube;whiteSpace=wrap;html=1;boundedLbl=1;backgroundOutline=1;darkOpacity=0.05;darkOpacity2=0.1;size=320;fillColor=#bac8d3;strokeColor=#23445d;" parent="1" vertex="1">
          <mxGeometry x="11740" y="2160" width="490" height="800" as="geometry" />
        </mxCell>
        <mxCell id="UhZcS7pYF88xfkLD6wTl-19" value="" style="shape=cube;whiteSpace=wrap;html=1;boundedLbl=1;backgroundOutline=1;darkOpacity=0.05;darkOpacity2=0.1;size=320;fillColor=#b1ddf0;strokeColor=#10739e;" parent="1" vertex="1">
          <mxGeometry x="12510" y="2160" width="480" height="800" as="geometry" />
        </mxCell>
        <mxCell id="UhZcS7pYF88xfkLD6wTl-20" value="" style="shape=cube;whiteSpace=wrap;html=1;boundedLbl=1;backgroundOutline=1;darkOpacity=0.05;darkOpacity2=0.1;size=320;fillColor=#b1ddf0;strokeColor=#10739e;" parent="1" vertex="1">
          <mxGeometry x="13110" y="2160" width="480" height="800" as="geometry" />
        </mxCell>
        <mxCell id="UhZcS7pYF88xfkLD6wTl-22" value="" style="shape=cube;whiteSpace=wrap;html=1;boundedLbl=1;backgroundOutline=1;darkOpacity=0.05;darkOpacity2=0.1;size=640;fillColor=#b1ddf0;strokeColor=#10739e;" parent="1" vertex="1">
          <mxGeometry x="12870" y="80" width="720" height="1600" as="geometry" />
        </mxCell>
        <mxCell id="UhZcS7pYF88xfkLD6wTl-21" value="" style="shape=cube;whiteSpace=wrap;html=1;boundedLbl=1;backgroundOutline=1;darkOpacity=0.05;darkOpacity2=0.1;size=640;fillColor=#bac8d3;strokeColor=#23445d;" parent="1" vertex="1">
          <mxGeometry x="12790" y="80" width="720" height="1600" as="geometry" />
        </mxCell>
        <mxCell id="UhZcS7pYF88xfkLD6wTl-23" value="" style="shape=cube;whiteSpace=wrap;html=1;boundedLbl=1;backgroundOutline=1;darkOpacity=0.05;darkOpacity2=0.1;size=640;fillColor=#b1ddf0;strokeColor=#10739e;" parent="1" vertex="1">
          <mxGeometry x="13710" y="80" width="720" height="1600" as="geometry" />
        </mxCell>
        <mxCell id="UhZcS7pYF88xfkLD6wTl-24" value="" style="shape=cube;whiteSpace=wrap;html=1;boundedLbl=1;backgroundOutline=1;darkOpacity=0.05;darkOpacity2=0.1;size=640;fillColor=#b1ddf0;strokeColor=#10739e;" parent="1" vertex="1">
          <mxGeometry x="14550" y="80" width="720" height="1600" as="geometry" />
        </mxCell>
        <mxCell id="UhZcS7pYF88xfkLD6wTl-25" value="" style="shape=flexArrow;endArrow=classic;html=1;rounded=0;fillColor=#1ba1e2;strokeColor=none;width=168;endSize=61.08;endWidth=128;" parent="1" edge="1">
          <mxGeometry width="50" height="50" relative="1" as="geometry">
            <mxPoint x="8693.99666666667" y="4920" as="sourcePoint" />
            <mxPoint x="8695.326666666668" y="4600" as="targetPoint" />
          </mxGeometry>
        </mxCell>
        <mxCell id="UhZcS7pYF88xfkLD6wTl-26" value="" style="shape=flexArrow;endArrow=classic;html=1;rounded=0;fillColor=#1ba1e2;strokeColor=none;width=168;endSize=61.08;endWidth=128;" parent="1" edge="1">
          <mxGeometry width="50" height="50" relative="1" as="geometry">
            <mxPoint x="10796.56666666667" y="4240" as="sourcePoint" />
            <mxPoint x="10797.896666666667" y="3920" as="targetPoint" />
          </mxGeometry>
        </mxCell>
        <mxCell id="UhZcS7pYF88xfkLD6wTl-27" value="" style="shape=flexArrow;endArrow=classic;html=1;rounded=0;fillColor=#1ba1e2;strokeColor=none;width=168;endSize=61.08;endWidth=128;" parent="1" edge="1">
          <mxGeometry width="50" height="50" relative="1" as="geometry">
            <mxPoint x="12141.566666666668" y="3360" as="sourcePoint" />
            <mxPoint x="12142.896666666666" y="3040" as="targetPoint" />
          </mxGeometry>
        </mxCell>
        <mxCell id="UhZcS7pYF88xfkLD6wTl-28" value="" style="shape=flexArrow;endArrow=classic;html=1;rounded=0;fillColor=#1ba1e2;strokeColor=none;width=168;endSize=61.08;endWidth=128;" parent="1" edge="1">
          <mxGeometry width="50" height="50" relative="1" as="geometry">
            <mxPoint x="13348.566666666668" y="2080" as="sourcePoint" />
            <mxPoint x="13349.896666666666" y="1760" as="targetPoint" />
          </mxGeometry>
        </mxCell>
        <mxCell id="UhZcS7pYF88xfkLD6wTl-30" value="" style="shape=flexArrow;endArrow=classic;html=1;rounded=0;fillColor=#1ba1e2;strokeColor=none;width=86;endSize=43.800000000000004;endWidth=65.71428571428572;" parent="1" edge="1">
          <mxGeometry width="50" height="50" relative="1" as="geometry">
            <mxPoint x="3050" y="2559.2900000000004" as="sourcePoint" />
            <mxPoint x="3310" y="2560" as="targetPoint" />
          </mxGeometry>
        </mxCell>
        <mxCell id="UhZcS7pYF88xfkLD6wTl-31" value="" style="shape=flexArrow;endArrow=classic;html=1;rounded=0;fillColor=#1ba1e2;strokeColor=none;width=48.57142857142858;endSize=23.4;endWidth=53.469387755102034;" parent="1" edge="1">
          <mxGeometry width="50" height="50" relative="1" as="geometry">
            <mxPoint x="3650" y="3639.2900000000004" as="sourcePoint" />
            <mxPoint x="3830" y="3639" as="targetPoint" />
          </mxGeometry>
        </mxCell>
        <mxCell id="UhZcS7pYF88xfkLD6wTl-32" value="" style="shape=flexArrow;endArrow=classic;html=1;rounded=0;fillColor=#1ba1e2;strokeColor=none;width=48.57142857142858;endSize=23.4;endWidth=53.469387755102034;" parent="1" edge="1">
          <mxGeometry width="50" height="50" relative="1" as="geometry">
            <mxPoint x="4250" y="3639.580000000001" as="sourcePoint" />
            <mxPoint x="4430" y="3639.29" as="targetPoint" />
          </mxGeometry>
        </mxCell>
        <mxCell id="UhZcS7pYF88xfkLD6wTl-33" value="" style="shape=flexArrow;endArrow=classic;html=1;rounded=0;fillColor=#1ba1e2;strokeColor=none;width=48.57142857142858;endSize=23.4;endWidth=53.469387755102034;" parent="1" edge="1">
          <mxGeometry width="50" height="50" relative="1" as="geometry">
            <mxPoint x="4850" y="4430.290000000001" as="sourcePoint" />
            <mxPoint x="4990" y="4430" as="targetPoint" />
          </mxGeometry>
        </mxCell>
        <mxCell id="UhZcS7pYF88xfkLD6wTl-34" value="" style="shape=flexArrow;endArrow=classic;html=1;rounded=0;fillColor=#1ba1e2;strokeColor=none;width=48.57142857142858;endSize=23.4;endWidth=53.469387755102034;" parent="1" edge="1">
          <mxGeometry width="50" height="50" relative="1" as="geometry">
            <mxPoint x="5696" y="4419.580000000001" as="sourcePoint" />
            <mxPoint x="5836" y="4419.29" as="targetPoint" />
          </mxGeometry>
        </mxCell>
        <mxCell id="UhZcS7pYF88xfkLD6wTl-35" value="" style="shape=flexArrow;endArrow=classic;html=1;rounded=0;fillColor=#1ba1e2;strokeColor=none;width=28.571428571428573;endSize=11.485714285714286;endWidth=33.46938775510204;" parent="1" edge="1">
          <mxGeometry width="50" height="50" relative="1" as="geometry">
            <mxPoint x="6538" y="5054" as="sourcePoint" />
            <mxPoint x="6662" y="5054.29" as="targetPoint" />
          </mxGeometry>
        </mxCell>
        <mxCell id="UhZcS7pYF88xfkLD6wTl-36" value="" style="shape=flexArrow;endArrow=classic;html=1;rounded=0;fillColor=#1ba1e2;strokeColor=none;width=28.571428571428573;endSize=11.485714285714286;endWidth=33.46938775510204;" parent="1" edge="1">
          <mxGeometry width="50" height="50" relative="1" as="geometry">
            <mxPoint x="7988" y="5049.29" as="sourcePoint" />
            <mxPoint x="8112" y="5049.58" as="targetPoint" />
          </mxGeometry>
        </mxCell>
        <mxCell id="UhZcS7pYF88xfkLD6wTl-40" value="" style="shape=flexArrow;endArrow=classic;html=1;rounded=0;fillColor=#1ba1e2;strokeColor=none;width=48.57142857142858;endSize=23.4;endWidth=53.469387755102034;" parent="1" edge="1">
          <mxGeometry width="50" height="50" relative="1" as="geometry">
            <mxPoint x="9450" y="4424" as="sourcePoint" />
            <mxPoint x="9600" y="4423.93" as="targetPoint" />
          </mxGeometry>
        </mxCell>
        <mxCell id="UhZcS7pYF88xfkLD6wTl-41" value="" style="shape=flexArrow;endArrow=classic;html=1;rounded=0;fillColor=#1ba1e2;strokeColor=none;width=48.57142857142858;endSize=23.4;endWidth=53.469387755102034;" parent="1" edge="1">
          <mxGeometry width="50" height="50" relative="1" as="geometry">
            <mxPoint x="10310" y="4420" as="sourcePoint" />
            <mxPoint x="10470" y="4419.000000000001" as="targetPoint" />
          </mxGeometry>
        </mxCell>
        <mxCell id="UhZcS7pYF88xfkLD6wTl-43" value="" style="shape=flexArrow;endArrow=classic;html=1;rounded=0;fillColor=#1ba1e2;strokeColor=none;width=48.57142857142858;endSize=23.4;endWidth=53.469387755102034;" parent="1" edge="1">
          <mxGeometry width="50" height="50" relative="1" as="geometry">
            <mxPoint x="11200" y="3638.140000000001" as="sourcePoint" />
            <mxPoint x="11380" y="3637.85" as="targetPoint" />
          </mxGeometry>
        </mxCell>
        <mxCell id="UhZcS7pYF88xfkLD6wTl-44" value="" style="shape=flexArrow;endArrow=classic;html=1;rounded=0;fillColor=#1ba1e2;strokeColor=none;width=48.57142857142858;endSize=23.4;endWidth=53.469387755102034;" parent="1" edge="1">
          <mxGeometry width="50" height="50" relative="1" as="geometry">
            <mxPoint x="11800" y="3638.4300000000007" as="sourcePoint" />
            <mxPoint x="11980" y="3638.14" as="targetPoint" />
          </mxGeometry>
        </mxCell>
        <mxCell id="UhZcS7pYF88xfkLD6wTl-46" value="" style="shape=flexArrow;endArrow=classic;html=1;rounded=0;fillColor=#1ba1e2;strokeColor=none;width=86;endSize=43.800000000000004;endWidth=65.71428571428572;" parent="1" edge="1">
          <mxGeometry width="50" height="50" relative="1" as="geometry">
            <mxPoint x="12410" y="2558" as="sourcePoint" />
            <mxPoint x="12670" y="2558.71" as="targetPoint" />
          </mxGeometry>
        </mxCell>
        <mxCell id="UhZcS7pYF88xfkLD6wTl-47" value="" style="shape=flexArrow;endArrow=classic;html=1;rounded=0;fillColor=#1ba1e2;strokeColor=none;width=86;endSize=43.800000000000004;endWidth=65.71428571428572;" parent="1" edge="1">
          <mxGeometry width="50" height="50" relative="1" as="geometry">
            <mxPoint x="13010" y="2558.000000000001" as="sourcePoint" />
            <mxPoint x="13270" y="2558.71" as="targetPoint" />
          </mxGeometry>
        </mxCell>
        <mxCell id="UhZcS7pYF88xfkLD6wTl-48" value="" style="shape=flexArrow;endArrow=classic;html=1;rounded=0;fillColor=#1ba1e2;strokeColor=none;width=86;endSize=43.800000000000004;endWidth=65.71428571428572;" parent="1" edge="1">
          <mxGeometry width="50" height="50" relative="1" as="geometry">
            <mxPoint x="13610" y="878.22" as="sourcePoint" />
            <mxPoint x="14010" y="878.22" as="targetPoint" />
          </mxGeometry>
        </mxCell>
        <mxCell id="UhZcS7pYF88xfkLD6wTl-49" value="" style="shape=flexArrow;endArrow=classic;html=1;rounded=0;fillColor=#1ba1e2;strokeColor=none;width=86;endSize=43.800000000000004;endWidth=65.71428571428572;" parent="1" edge="1">
          <mxGeometry width="50" height="50" relative="1" as="geometry">
            <mxPoint x="14460" y="877.7899999999997" as="sourcePoint" />
            <mxPoint x="14860" y="877.7899999999997" as="targetPoint" />
          </mxGeometry>
        </mxCell>
        <mxCell id="UhZcS7pYF88xfkLD6wTl-50" value="" style="shape=flexArrow;endArrow=classic;html=1;rounded=0;fillColor=#fad7ac;strokeColor=#b46504;width=86;endSize=43.800000000000004;endWidth=65.71428571428572;" parent="1" edge="1">
          <mxGeometry width="50" height="50" relative="1" as="geometry">
            <mxPoint x="2460" y="878" as="sourcePoint" />
            <mxPoint x="13080" y="878.0000000000002" as="targetPoint" />
          </mxGeometry>
        </mxCell>
        <mxCell id="UhZcS7pYF88xfkLD6wTl-51" value="" style="shape=flexArrow;endArrow=classic;html=1;rounded=0;fillColor=#fad7ac;strokeColor=#b46504;width=86;endSize=43.800000000000004;endWidth=65.71428571428572;" parent="1" edge="1">
          <mxGeometry width="50" height="50" relative="1" as="geometry">
            <mxPoint x="3650" y="2550" as="sourcePoint" />
            <mxPoint x="11906" y="2559.8" as="targetPoint" />
          </mxGeometry>
        </mxCell>
        <mxCell id="UhZcS7pYF88xfkLD6wTl-52" value="" style="shape=flexArrow;endArrow=classic;html=1;rounded=0;fillColor=#fad7ac;strokeColor=#b46504;width=48.57142857142858;endSize=23.4;endWidth=53.469387755102034;" parent="1" edge="1">
          <mxGeometry width="50" height="50" relative="1" as="geometry">
            <mxPoint x="4850" y="3633" as="sourcePoint" />
            <mxPoint x="10430" y="3639.09" as="targetPoint" />
          </mxGeometry>
        </mxCell>
        <mxCell id="UhZcS7pYF88xfkLD6wTl-53" value="" style="shape=flexArrow;endArrow=classic;html=1;rounded=0;fillColor=#fad7ac;strokeColor=#b46504;width=48.57142857142858;endSize=23.4;endWidth=53.469387755102034;" parent="1" edge="1">
          <mxGeometry width="50" height="50" relative="1" as="geometry">
            <mxPoint x="6550" y="4418" as="sourcePoint" />
            <mxPoint x="8100" y="4419.09" as="targetPoint" />
          </mxGeometry>
        </mxCell>
        <mxCell id="IVe8Yf3dn3SxXcpoexNt-3" value="" style="shape=cube;whiteSpace=wrap;html=1;boundedLbl=1;backgroundOutline=1;darkOpacity=0.05;darkOpacity2=0.1;size=640;fillColor=#b1ddf0;strokeColor=#10739e;" parent="1" vertex="1">
          <mxGeometry x="15390" y="80" width="680" height="1600" as="geometry" />
        </mxCell>
        <mxCell id="IVe8Yf3dn3SxXcpoexNt-4" value="" style="shape=flexArrow;endArrow=classic;html=1;rounded=0;fillColor=#1ba1e2;strokeColor=#006EAF;width=86;endSize=43.800000000000004;endWidth=65.71428571428572;" parent="1" edge="1">
          <mxGeometry width="50" height="50" relative="1" as="geometry">
            <mxPoint x="15300" y="877.79" as="sourcePoint" />
            <mxPoint x="15700" y="877.79" as="targetPoint" />
          </mxGeometry>
        </mxCell>
        <mxCell id="_xulB-fiVqJOvPPSpQLG-1" value="" style="shape=cube;whiteSpace=wrap;html=1;boundedLbl=1;backgroundOutline=1;darkOpacity=0.05;darkOpacity2=0.1;size=640;fillColor=#b1ddf0;strokeColor=#10739e;" vertex="1" parent="1">
          <mxGeometry x="16190" y="80" width="680" height="1600" as="geometry" />
        </mxCell>
        <mxCell id="_xulB-fiVqJOvPPSpQLG-2" value="" style="shape=flexArrow;endArrow=classic;html=1;rounded=0;fillColor=#1ba1e2;strokeColor=#006EAF;width=86;endSize=43.800000000000004;endWidth=65.71428571428572;" edge="1" parent="1">
          <mxGeometry width="50" height="50" relative="1" as="geometry">
            <mxPoint x="16100" y="877.79" as="sourcePoint" />
            <mxPoint x="16500" y="877.79" as="targetPoint" />
          </mxGeometry>
        </mxCell>
      </root>
    </mxGraphModel>
  </diagram>
</mxfile>
